<svg xmlns="http://www.w3.org/2000/svg" xmlns:xlink="http://www.w3.org/1999/xlink" width="500" zoomAndPan="magnify" viewBox="0 0 375 374.999991" height="500" preserveAspectRatio="xMidYMid meet" version="1.0"><defs><g/><clipPath id="9d8c9b26b2"><rect x="0" width="231" y="0" height="375"/></clipPath><clipPath id="59695ed655"><rect x="0" width="248" y="0" height="375"/></clipPath></defs><g transform="matrix(1, 0, 0, 1, 0, 0)"><g clip-path="url(#9d8c9b26b2)"><g fill="#f3c7c6" fill-opacity="1"><g transform="translate(7.984362, 301.32122)"><g><path d="M 76.59375 -89.921875 C 72.675781 -82.003906 73.875 -73.890625 80.1875 -65.578125 C 86.519531 -57.117188 96.25 -55.332031 109.375 -60.21875 C 117.65625 -63.320312 123.773438 -67.492188 127.734375 -72.734375 C 131.679688 -77.960938 134.078125 -83.425781 134.921875 -89.125 C 135.578125 -95.351562 133.691406 -100.476562 129.265625 -104.5 C 124.691406 -108.5 119.222656 -110.828125 112.859375 -111.484375 C 106.378906 -112.003906 99.679688 -110.617188 92.765625 -107.328125 C 85.878906 -103.921875 80.488281 -98.117188 76.59375 -89.921875 Z M 112.71875 -169.140625 C 99.40625 -171.234375 86.394531 -170.722656 73.6875 -167.609375 C 64.03125 -165.210938 56.023438 -161.253906 49.671875 -155.734375 C 43.179688 -150.066406 35.460938 -147.8125 26.515625 -148.96875 C 17.429688 -150.101562 10.742188 -154.707031 6.453125 -162.78125 C 2.160156 -170.695312 2.632812 -177.785156 7.875 -184.046875 C 12.976562 -190.296875 17.632812 -195.101562 21.84375 -198.46875 C 24.78125 -200.9375 27.800781 -203.085938 30.90625 -204.921875 C 39.175781 -210.035156 47.878906 -213.628906 57.015625 -215.703125 C 66.015625 -217.773438 75.128906 -219.253906 84.359375 -220.140625 C 96.660156 -221.191406 108.78125 -220.84375 120.71875 -219.09375 C 130.09375 -217.8125 139.316406 -215.59375 148.390625 -212.4375 C 157.347656 -209.125 166.296875 -201.84375 175.234375 -190.59375 C 184.046875 -179.351562 188.441406 -165.660156 188.421875 -149.515625 C 188.410156 -133.253906 189.066406 -114.066406 190.390625 -91.953125 C 191.847656 -67.710938 195.984375 -49.769531 202.796875 -38.125 C 203.597656 -36.300781 204.460938 -34.34375 205.390625 -32.25 C 206.203125 -30.15625 206.609375 -28.03125 206.609375 -25.875 C 206.859375 -22.125 205.546875 -18.679688 202.671875 -15.546875 C 199.785156 -12.378906 195.238281 -9.992188 189.03125 -8.390625 C 182.675781 -6.753906 176.765625 -6.628906 171.296875 -8.015625 C 165.828125 -9.410156 161.914062 -10.632812 159.5625 -11.6875 C 155.269531 -13.6875 151.914062 -16.632812 149.5 -20.53125 C 147.84375 -23.363281 146.457031 -26.085938 145.34375 -28.703125 C 138.59375 -22.878906 132.8125 -18.734375 128 -16.265625 C 117.34375 -10.867188 105.800781 -7.492188 93.375 -6.140625 C 80.675781 -5.023438 68.441406 -6.035156 56.671875 -9.171875 C 47.648438 -11.535156 39.285156 -14.957031 31.578125 -19.4375 C 23.910156 -23.757812 17.894531 -29.476562 13.53125 -36.59375 C 9.457031 -43.445312 7.113281 -51.5625 6.5 -60.9375 C 5.613281 -74.320312 8.429688 -86.601562 14.953125 -97.78125 C 18.359375 -103.25 21.59375 -108.300781 24.65625 -112.9375 C 27.570312 -117.570312 34.191406 -124.191406 44.515625 -132.796875 C 54.828125 -141.410156 67.691406 -147.097656 83.109375 -149.859375 C 98.535156 -152.617188 115.148438 -152.570312 132.953125 -149.71875 C 133.421875 -150.675781 132.785156 -153.1875 131.046875 -157.25 C 129.304688 -161.164062 123.195312 -165.128906 112.71875 -169.140625 Z M 112.71875 -169.140625 "/></g></g></g></g></g><g transform="matrix(1, 0, 0, 1, 127, 0)"><g clip-path="url(#59695ed655)"><g fill="#f3c7c6" fill-opacity="1"><g transform="translate(28.347533, 300.084618)"><g><path d="M 76.59375 -89.921875 C 72.675781 -82.003906 73.875 -73.890625 80.1875 -65.578125 C 86.519531 -57.117188 96.25 -55.332031 109.375 -60.21875 C 117.65625 -63.320312 123.773438 -67.492188 127.734375 -72.734375 C 131.679688 -77.960938 134.078125 -83.425781 134.921875 -89.125 C 135.578125 -95.351562 133.691406 -100.476562 129.265625 -104.5 C 124.691406 -108.5 119.222656 -110.828125 112.859375 -111.484375 C 106.378906 -112.003906 99.679688 -110.617188 92.765625 -107.328125 C 85.878906 -103.921875 80.488281 -98.117188 76.59375 -89.921875 Z M 112.71875 -169.140625 C 99.40625 -171.234375 86.394531 -170.722656 73.6875 -167.609375 C 64.03125 -165.210938 56.023438 -161.253906 49.671875 -155.734375 C 43.179688 -150.066406 35.460938 -147.8125 26.515625 -148.96875 C 17.429688 -150.101562 10.742188 -154.707031 6.453125 -162.78125 C 2.160156 -170.695312 2.632812 -177.785156 7.875 -184.046875 C 12.976562 -190.296875 17.632812 -195.101562 21.84375 -198.46875 C 24.78125 -200.9375 27.800781 -203.085938 30.90625 -204.921875 C 39.175781 -210.035156 47.878906 -213.628906 57.015625 -215.703125 C 66.015625 -217.773438 75.128906 -219.253906 84.359375 -220.140625 C 96.660156 -221.191406 108.78125 -220.84375 120.71875 -219.09375 C 130.09375 -217.8125 139.316406 -215.59375 148.390625 -212.4375 C 157.347656 -209.125 166.296875 -201.84375 175.234375 -190.59375 C 184.046875 -179.351562 188.441406 -165.660156 188.421875 -149.515625 C 188.410156 -133.253906 189.066406 -114.066406 190.390625 -91.953125 C 191.847656 -67.710938 195.984375 -49.769531 202.796875 -38.125 C 203.597656 -36.300781 204.460938 -34.34375 205.390625 -32.25 C 206.203125 -30.15625 206.609375 -28.03125 206.609375 -25.875 C 206.859375 -22.125 205.546875 -18.679688 202.671875 -15.546875 C 199.785156 -12.378906 195.238281 -9.992188 189.03125 -8.390625 C 182.675781 -6.753906 176.765625 -6.628906 171.296875 -8.015625 C 165.828125 -9.410156 161.914062 -10.632812 159.5625 -11.6875 C 155.269531 -13.6875 151.914062 -16.632812 149.5 -20.53125 C 147.84375 -23.363281 146.457031 -26.085938 145.34375 -28.703125 C 138.59375 -22.878906 132.8125 -18.734375 128 -16.265625 C 117.34375 -10.867188 105.800781 -7.492188 93.375 -6.140625 C 80.675781 -5.023438 68.441406 -6.035156 56.671875 -9.171875 C 47.648438 -11.535156 39.285156 -14.957031 31.578125 -19.4375 C 23.910156 -23.757812 17.894531 -29.476562 13.53125 -36.59375 C 9.457031 -43.445312 7.113281 -51.5625 6.5 -60.9375 C 5.613281 -74.320312 8.429688 -86.601562 14.953125 -97.78125 C 18.359375 -103.25 21.59375 -108.300781 24.65625 -112.9375 C 27.570312 -117.570312 34.191406 -124.191406 44.515625 -132.796875 C 54.828125 -141.410156 67.691406 -147.097656 83.109375 -149.859375 C 98.535156 -152.617188 115.148438 -152.570312 132.953125 -149.71875 C 133.421875 -150.675781 132.785156 -153.1875 131.046875 -157.25 C 129.304688 -161.164062 123.195312 -165.128906 112.71875 -169.140625 Z M 112.71875 -169.140625 "/></g></g></g></g></g></svg>